PathFileType	4	(X/Y/Z)	E:\Qualisys_Data\Carbon_Farble_Plate\Data\Amateur_Runner\S2\T2\S2T2V12_c3d.trc
DataRate	CameraRate	NumFrames	NumMarkers	Units	OrigDataRate	OrigDataStartFrame	OrigNumFrames
200.000000	200.000000	4	39	mm	200.000000	248	331
Frame#	Time	LSHO			RSHO			LICST			RICST			LASIS			LHEEL			RASIS			LTROC			RTROC			SACR			LTH1			LSK4			LTH2			LTH3			RHM5			LSK2			LTH4			RTH1			LTOE			RTH2			RTH3			RTH4			LLEP			RLEP			LSK1			LSK3			RSK1			LHM5			RSK2			LFT1			RSK3			RSK4			LLME			RLME			RTOE			RHEEL			RFT1			RFT2			LFT2			
		X1	Y1	Z1	X2	Y2	Z2	X3	Y3	Z3	X4	Y4	Z4	X5	Y5	Z5	X6	Y6	Z6	X7	Y7	Z7	X8	Y8	Z8	X9	Y9	Z9	X10	Y10	Z10	X11	Y11	Z11	X12	Y12	Z12	X13	Y13	Z13	X14	Y14	Z14	X15	Y15	Z15	X16	Y16	Z16	X17	Y17	Z17	X18	Y18	Z18	X19	Y19	Z19	X20	Y20	Z20	X21	Y21	Z21	X22	Y22	Z22	X23	Y23	Z23	X24	Y24	Z24	X25	Y25	Z25	X26	Y26	Z26	X27	Y27	Z27	X28	Y28	Z28	X29	Y29	Z29	X30	Y30	Z30	X31	Y31	Z31	X32	Y32	Z32	X33	Y33	Z33	X34	Y34	Z34	X35	Y35	Z35	X36	Y36	Z36	X37	Y37	Z37	X38	Y38	Z38	X39	Y39	Z39	

249	1.24	1567.330688476562	1450.5146484375	-475.3813781738281	1635.08447265625	1439.1591796875	-178.6562652587891	1560.537353515625	986.6826171875	-451.3613891601562	1598.877807617188	978.4100952148438	-153.3063201904297	1622.087768554688	940.3348999023438	-436.6212768554688	1635.947631835938	78.16436004638672	-300.7977294921875	1653.338745117188	929.5325927734376	-178.5536193847656	1504.553344726562	857.2161865234375	-451.7462768554688	1502.190795898438	883.337646484375	-134.0003051757812	1487.375244140625	1024.174072265625	-290.8440551757812	1691.327392578125	661.6716918945312	-444.7160034179688	1648.071411132812	260.5097351074219	-405.0878601074219	1614.793823242188	633.0699462890625	-448.2575378417969	1724.962768554688	566.6117553710938	-417.9945068359375	1035.418334960938	290.651611328125	-150.5700988769531	1650.629760742188	358.0578308105469	-424.0850830078125	1644.086303710938	540.3607788085938	-419.5211181640625	1576.6962890625	616.705322265625	-128.8771209716797	1876.635009765625	100.2185821533203	-340.9552917480469	1502.043701171875	633.3344116210938	-128.2993621826172	1555.973266601562	518.1275024414062	-133.6946258544922	1478.396240234375	538.0885620117188	-142.1541290283203	1694.958251953125	494.8738403320312	-412.8239440917969	1489.8525390625	492.7546997070312	-131.1146850585938	1727.932983398438	358.6281127929688	-410.6482238769531	1726.820190429688	259.957763671875	-396.0242004394531	1396.537231445312	420.3826904296875	-128.0863952636719	1819.319946289062	64.79914855957031	-389.2237548828125	1378.294799804688	498.4478759765625	-129.5304260253906	1648.686767578125	49.75675201416016	-276.7649841308594	1297.88818359375	397.0275573730469	-138.7910461425781	1283.0869140625	474.7767944335938	-143.0517883300781	1691.265625	85.74798583984375	-365.0833129882812	1108.76611328125	396.811279296875	-177.0049285888672	1055.326538085938	209.4312896728516	-194.115478515625	1118.351684570312	447.8692321777344	-240.9710540771484	1094.057739257812	431.0247497558594	-275.5743408203125	1083.668579101562	455.6627197265625	-224.982421875	1639.506103515625	43.66180801391602	-329.6768493652344
250	1.245	1583.932739257812	1444.790405273438	-476.6987915039062	1650.062133789062	1433.80908203125	-179.1541137695312	1574.757080078125	981.4736938476562	-451.2196350097656	1613.982055664062	972.7340698242188	-153.4329986572266	1636.711303710938	935.2308349609376	-437.138916015625	1638.874877929688	77.01761627197266	-301.2146301269531	1668.5380859375	923.924072265625	-178.4316558837891	1519.239379882812	851.7361450195312	-450.7507629394531	1517.978881835938	876.5634765625	-133.3322143554688	1502.12744140625	1018.510192871094	-290.9057922363281	1708.007080078125	657.2359008789062	-439.6697998046875	1659.649780273438	256.5611877441406	-404.4328918457031	1630.346557617188	627.4797973632812	-448.2003173828125	1740.214965820312	562.1076049804688	-417.1633911132812	1056.671508789062	295.0043640136719	-149.6836853027344	1664.211303710938	354.1354370117188	-423.0689392089844	1659.780029296875	535.6867065429688	-419.2219543457031	1596.90283203125	611.0303955078125	-127.7881774902344	1882.021728515625	88.1229019165039	-334.6733093261719	1521.270751953125	626.291748046875	-128.1965942382812	1577.778686523438	512.3145141601562	-132.3973083496094	1499.80322265625	530.1049194335938	-140.9559783935547	1710.280395507812	489.7724609375	-411.5928649902344	1512.492309570312	485.9893188476562	-129.7082061767578	1741.379150390625	352.9208068847656	-408.487548828125	1738.080688476562	254.1796264648438	-393.7041015625	1418.667236328125	415.4540405273438	-127.2377243041992	1824.404174804688	58.72394943237305	-387.4858703613281	1402.495361328125	494.444580078125	-128.3375396728516	1650.054809570312	49.289306640625	-277.454833984375	1319.238525390625	394.5768737792969	-138.6302490234375	1306.188354492188	473.0007019042969	-142.1958465576172	1695.76123046875	82.53433227539062	-364.7357177734375	1130.944702148438	399.6198120117188	-177.7278594970703	1075.260375976562	213.1692047119141	-192.5771484375	1141.136474609375	450.5927429199219	-241.8916015625	1116.459228515625	433.58544921875	-276.1340942382812	1106.51806640625	458.8972778320312	-225.8521881103516	1641.044921875	42.5891227722168	-329.9523620605469
251	1.25	1600.350341796875	1438.93798828125	-478.11865234375	1665.322143554688	1428.630737304688	-179.4739990234375	1589.5361328125	976.0628051757812	-451.0079040527344	1629.014892578125	966.8424072265624	-153.0378570556641	1651.185546875	930.1483764648438	-437.2677917480469	1641.2578125	76.14073944091797	-301.9137878417969	1683.833374023438	918.3968505859376	-178.4665679931641	1534.278076171875	846.34521484375	-449.9976501464844	1534.0009765625	869.5702514648438	-133.2105865478516	1517.356811523438	1012.938232421875	-290.8508605957031	1723.202270507812	652.232177734375	-439.1681823730469	1670.388793945312	253.3458709716797	-403.7355346679688	1645.19921875	622.30908203125	-447.7633972167969	1755.195190429688	557.4014892578125	-416.61328125	1078.842895507812	299.0980529785156	-148.5423431396484	1678.359130859375	350.5712585449219	-422.03076171875	1675.038330078125	530.4881591796875	-418.907470703125	1616.882568359375	605.3230590820312	-126.1559143066406	1886.094970703125	81.95787048339844	-327.2391052246094	1541.109741210938	618.7335815429688	-127.7075805664062	1599.835571289062	505.7193298339844	-131.1829528808594	1521.386352539062	522.2522583007812	-140.2991027832031	1726.058227539062	484.7976684570312	-410.2985229492188	1535.76513671875	479.5838317871094	-127.5933685302734	1755.178100585938	347.2822265625	-406.7403564453125	1748.360961914062	248.6758117675781	-391.9727478027344	1441.112060546875	410.93017578125	-126.4072647094727	1828.262939453125	57.98159790039062	-383.72314453125	1425.868774414062	490.3305358886719	-126.3018188476562	1651.663452148438	48.3361930847168	-277.5901184082031	1340.8955078125	391.8592224121094	-138.4053802490234	1329.836303710938	470.5226745605469	-141.6387481689453	1699.234130859375	79.89795684814453	-364.5841979980469	1153.967163085938	402.4933166503906	-177.9530792236328	1096.530151367188	216.5153961181641	-191.3788909912109	1164.117431640625	453.0129699707031	-242.5744781494141	1139.413208007812	436.083740234375	-276.7008972167969	1129.8154296875	461.3659057617188	-226.2947845458984	1642.433227539062	41.87226104736328	-330.8926391601562
252	1.255	1617.150512695312	1433.574462890625	-479.2613830566406	1680.053344726562	1423.56494140625	-179.8603210449219	1604.515869140625	970.9274291992188	-451.1886291503906	1644.01611328125	960.7647705078124	-152.5968933105469	1665.782104492188	924.9336547851562	-437.1498718261719	1642.31591796875	76.4376449584961	-301.9379577636719	1698.967163085938	912.5496215820312	-178.6270751953125	1549.58642578125	840.6287231445312	-449.61962890625	1549.806762695312	862.4364624023438	-133.3885192871094	1531.913818359375	1007.043090820312	-290.6846313476562	1737.941040039062	646.6582641601562	-440.3904724121094	1681.05712890625	251.4417572021484	-403.4463500976562	1659.703491210938	617.1226806640625	-447.0416870117188	1770.3857421875	552.2166748046875	-415.4990844726562	1101.987426757812	302.3826599121094	-148.3680419921875	1692.32421875	349.6236267089844	-422.2327270507812	1690.4150390625	525.2341918945312	-417.8197326660156	1637.19091796875	599.2722778320312	-126.0668716430664	1886.84130859375	78.08573913574219	-323.6156921386719	1561.0859375	611.406005859375	-126.837287902832	1621.901245117188	499.385009765625	-130.1468963623047	1543.511962890625	514.5119018554688	-139.1204833984375	1742.142333984375	479.9488525390625	-408.8984680175781	1558.826416015625	471.4814147949219	-127.5402984619141	1768.750366210938	342.7478942871094	-403.9332275390625	1758.724243164062	244.3213958740234	-390.4150695800781	1463.616577148438	405.8517761230469	-126.1306457519531	1828.614501953125	58.81035995483398	-380.1180419921875	1450.322631835938	486.1310424804688	-124.3633117675781	1652.0703125	47.78276824951172	-277.1161804199219	1363.764526367188	389.1259460449219	-138.274169921875	1353.995483398438	468.3793029785156	-140.9632110595703	1701.13232421875	79.48406219482422	-363.76025390625	1177.219482421875	404.7959289550781	-178.2848358154297	1118.328735351562	219.4039459228516	-190.3450317382812	1187.408203125	455.2095031738281	-243.4519805908203	1162.358154296875	438.3049926757812	-276.9483032226562	1153.425903320312	464.2692565917969	-226.6428375244141	1643.222045898438	41.9704704284668	-330.3665466308594
